<?xml version="1.0" encoding="utf-8"?>
<!-- Generator: Adobe Illustrator 25.0.0, SVG Export Plug-In . SVG Version: 6.00 Build 0)  -->
<svg version="1.1" id="圖層_1" xmlns="http://www.w3.org/2000/svg" xmlns:xlink="http://www.w3.org/1999/xlink" x="0px" y="0px"
	 viewBox="0 0 1024 1947" style="enable-background:new 0 0 1024 1947;" xml:space="preserve">
<style type="text/css">
	.st0{fill:#FFFFFF;}
	.st1{fill-rule:evenodd;clip-rule:evenodd;fill:#FFFFFF;}
</style>
<path class="st0" d="M260.3,36.5l-0.1-0.5L260.3,36.5z M0,152.9l-0.3-0.4l-0.2,0.1v0.2H0z M538.5,64l-0.1,0.5L538.5,64z M1024,1h0.5
	V0.2l-0.7,0.4L1024,1z M1024,920.2l0.3,0.4l0.2-0.1v-0.2H1024z M763.7,1036.7l0.1,0.5L763.7,1036.7z M461.7,1018.3l-0.1,0.5l0,0l0,0
	L461.7,1018.3z M461.7,1018.3l0.1-0.5l0,0h0L461.7,1018.3z M0,1072.1h-0.5v0.8l0.7-0.4L0,1072.1z M260.2,36
	C130.8,58.1,55.5,101.8-0.3,152.5l0.7,0.7c55.7-50.6,130.8-94.2,260-116.3L260.2,36z M538.6,63.5C449.9,42.2,356,19.6,260.2,36
	l0.2,1c95.6-16.4,189.3,6.2,278,27.5L538.6,63.5z M716,92.8c-55.9,0-115.4-14.3-177.4-29.2l-0.2,1c62,14.9,121.6,29.3,177.7,29.3
	V92.8z M1023.8,0.6c-82.1,41.9-199,92.2-307.8,92.2v1c109,0,226.1-50.4,308.2-92.3L1023.8,0.6z M1024.5,230.3V1h-1v229.3H1024.5z
	 M1024.5,230.5v-0.2h-1v0.2H1024.5z M1024.5,842.6V230.5h-1v612.1H1024.5z M1024.5,920.2v-77.6h-1v77.6H1024.5z M763.8,1037.2
	c129.4-22.2,204.6-65.9,260.5-116.6l-0.7-0.7c-55.7,50.6-130.8,94.2-260,116.3L763.8,1037.2z M461.6,1018.8
	c98,17,203.5,35.3,302.2,18.4l-0.2-1c-98.6,16.9-203.9-1.4-301.9-18.4L461.6,1018.8z M461.5,1018.7L461.5,1018.7l0.3-1l0,0
	L461.5,1018.7z M284,997.2c53.5,0,114,10.5,177.6,21.5l0.2-1c-63.6-11-124.1-21.5-177.7-21.5V997.2z M0.2,1072.6
	c82.1-41.9,175-75.3,283.8-75.3v-1c-109,0-202.1,33.5-284.2,75.5L0.2,1072.6z M-0.5,842.6v229.5h1V842.6H-0.5z M-0.5,230.5v612.1h1
	V230.5H-0.5z M-0.5,230.3v0.2h1v-0.2H-0.5z M-0.5,152.9v77.4h1v-77.4H-0.5z"/>
<path class="st1" d="M716,100.7c-56,0-115.5-15.6-177.5-31.9c-88.7-23.3-182.5-48-278.2-30.1C130.9,62.9,55.8,110.6,0,165.9v84.5
	v0.2v668.3v24.4v84.5v0.2v141.5v526.8V1947c82.1-45.8,175.1-82.3,284-82.3c53.5,0,114.1,11.5,177.7,23.5h0
	c98,18.6,203.4,38.5,302.1,20.1c129.3-24.2,204.5-71.9,260.3-127.2v-84.8v-668.3v-0.2v-24.2v-84.8V777.5V250.6v-0.2V0
	C941.9,45.8,824.9,100.7,716,100.7z"/>
</svg>
